<?xml version="1.0" encoding="utf-8"?>
<!-- Generator: Adobe Illustrator 23.0.2, SVG Export Plug-In . SVG Version: 6.00 Build 0)  -->
<svg version="1.1" id="图层_1" xmlns="http://www.w3.org/2000/svg" xmlns:xlink="http://www.w3.org/1999/xlink" x="0px" y="0px"
	 viewBox="0 0 46 46" style="enable-background:new 0 0 46 46;" xml:space="preserve">
<style type="text/css">
	.st0{fill:url(#XMLID_2_);}
	.st1{fill:#FFFFFF;}
	.st2{fill:#A82C4C;}
	.st3{fill:#9E1F15;}
	.st4{fill:none;}
	.st5{fill:url(#XMLID_3_);}
	.st6{fill:#647382;}
	.st7{fill:#283746;}
</style>
<g id="XMLID_111_">
	
		<linearGradient id="XMLID_2_" gradientUnits="userSpaceOnUse" x1="13.0728" y1="41.3423" x2="20.8503" y2="9.5658" gradientTransform="matrix(1 0 0 -1 4.5 45.2541)">
		<stop  offset="0" style="stop-color:#FB7090"/>
		<stop  offset="1" style="stop-color:#EB4628"/>
	</linearGradient>
	<polygon id="XMLID_121_" class="st0" points="26,0 0,26 0,44 44,0 	"/>
	<g>
		<g>
			<path class="st1" d="M22,17.1l-3.8-3.8l0.8-0.8l2.6,0.6c0.7,0.2,1.3,0.4,1.9,0.6l0,0c-0.6-0.5-1.1-0.9-1.6-1.5l-1.3-1.3l0.6-0.6
				L25,14l-0.7,0.7l-2.7-0.7c-0.7-0.2-1.4-0.4-2-0.6l0,0c0.5,0.5,1,1,1.7,1.6l1.4,1.4L22,17.1z"/>
			<path class="st1" d="M26.3,9.4l-1.4,1.4l1.1,1.1l1.6-1.6l0.6,0.6l-2.3,2.3L22,9.4l2.2-2.2l0.6,0.6l-1.5,1.5l1,1l1.4-1.4L26.3,9.4
				z"/>
			<path class="st1" d="M29.4,9.7l-4.7-2.9L25.4,6l2.1,1.4c0.6,0.4,1.1,0.8,1.6,1.1l0,0c-0.3-0.5-0.7-1-1.1-1.6l-1.3-2.1L27.4,4
				l2.1,1.4c0.5,0.4,1.1,0.7,1.5,1.1l0,0c-0.4-0.5-0.7-1-1.1-1.6l-1.3-2.1L29.4,2l2.8,4.8l-0.7,0.7l-2.2-1.4c-0.5-0.3-1-0.6-1.4-1
				l0,0c0.3,0.5,0.6,0.9,1,1.5l1.4,2.2L29.4,9.7z"/>
		</g>
	</g>
	<polygon id="XMLID_115_" class="st2" points="42,2 46,2 44,0 	"/>
	<polygon id="XMLID_114_" class="st3" points="2,42 0,44 2,46 	"/>
</g>
<polygon class="st4" points="46,46 0,46 0,0 "/>
<linearGradient id="XMLID_3_" gradientUnits="userSpaceOnUse" x1="2.3968" y1="29.0211" x2="8.0645" y2="5.8648" gradientTransform="matrix(1 0 0 -1 4.5 45.2541)">
	<stop  offset="0" style="stop-color:#AAB9C8"/>
	<stop  offset="1" style="stop-color:#788796"/>
</linearGradient>
<polygon id="XMLID_110_" class="st5" points="12.5,13.5 0,26 0,44 22,22 "/>
<polygon id="XMLID_105_" class="st6" points="42,2 46,2 44,0 "/>
<polygon id="XMLID_103_" class="st7" points="2,42 0,44 2,46 "/>
<g>
	<path class="st1" d="M1.8,31.4l0.7-0.7c0.2-0.2,0.3-0.3,0.4-0.3c0.1-0.1,0.3-0.1,0.5-0.1c0.2,0,0.3,0,0.5,0.1
		c0.2,0.1,0.3,0.2,0.5,0.4c0.2,0.2,0.3,0.3,0.3,0.5c0.1,0.2,0.1,0.4,0.1,0.5c0,0.1,0,0.3-0.1,0.4c-0.1,0.1-0.2,0.2-0.3,0.4l-0.7,0.7
		L1.8,31.4z M2.5,31.4l1.3,1.3L4,32.3c0.1-0.1,0.2-0.2,0.2-0.3c0-0.1,0.1-0.2,0.1-0.2c0-0.1,0-0.2-0.1-0.3c-0.1-0.1-0.2-0.2-0.3-0.4
		c-0.1-0.1-0.3-0.2-0.4-0.3s-0.2-0.1-0.3-0.1c-0.1,0-0.2,0-0.3,0.1c-0.1,0-0.2,0.1-0.3,0.3L2.5,31.4z"/>
	<path class="st1" d="M5.6,31.4l-1.9-1.9l0.4-0.4L6,31L5.6,31.4z"/>
	<path class="st1" d="M5.6,30.1l0.3-0.4c0.1,0.1,0.3,0.1,0.4,0.1c0.1,0,0.3-0.1,0.4-0.2c0.1-0.1,0.2-0.2,0.2-0.4
		c0-0.1,0-0.2-0.1-0.3c0,0-0.1-0.1-0.2-0.1c-0.1,0-0.1,0-0.2,0.1c-0.1,0-0.2,0.1-0.4,0.2c-0.3,0.2-0.5,0.2-0.6,0.2
		c-0.2,0-0.4-0.1-0.6-0.2c-0.1-0.1-0.2-0.2-0.2-0.4c0-0.1,0-0.3,0-0.4s0.2-0.3,0.3-0.4c0.2-0.2,0.5-0.4,0.7-0.4
		c0.2,0,0.4,0.1,0.6,0.2L6,28.3c-0.1-0.1-0.2-0.1-0.3-0.1c-0.1,0-0.2,0.1-0.3,0.2c-0.1,0.1-0.2,0.2-0.2,0.3c0,0.1,0,0.1,0.1,0.2
		c0,0,0.1,0.1,0.2,0.1c0.1,0,0.3-0.1,0.5-0.2c0.2-0.1,0.4-0.2,0.6-0.3s0.3,0,0.4,0c0.1,0,0.3,0.1,0.4,0.2c0.1,0.1,0.2,0.2,0.2,0.4
		c0,0.2,0,0.3,0,0.5C7.3,29.7,7.2,29.8,7,30c-0.2,0.2-0.5,0.4-0.7,0.4S5.8,30.3,5.6,30.1z"/>
	<path class="st1" d="M9.8,27.2l-0.4,0.4l-0.6-0.3L8,28.1l0.3,0.6l-0.4,0.4l-1.2-2.6L7.2,26L9.8,27.2z M8.4,27.1l-1-0.4l0.4,1
		L8.4,27.1z"/>
	<path class="st1" d="M8.1,25.1l0.8-0.8C9,24.2,9.1,24,9.2,24s0.2-0.1,0.3-0.1c0.1,0,0.2,0,0.3,0c0.1,0,0.2,0.1,0.3,0.2
		c0.1,0.1,0.1,0.2,0.2,0.3c0,0.1,0,0.2,0,0.4c0.1-0.1,0.3-0.1,0.4-0.1c0.1,0,0.3,0.1,0.4,0.2c0.1,0.1,0.2,0.2,0.2,0.3
		c0,0.1,0.1,0.2,0,0.4c0,0.1-0.1,0.2-0.2,0.3c-0.1,0.1-0.2,0.2-0.5,0.5L10,27L8.1,25.1z M8.8,25l0.4,0.4l0.3-0.3
		c0.1-0.2,0.2-0.2,0.3-0.3c0.1-0.1,0.1-0.1,0.1-0.2s0-0.1-0.1-0.2c-0.1-0.1-0.1-0.1-0.2-0.1c-0.1,0-0.1,0-0.2,0.1
		c0,0-0.2,0.1-0.3,0.3L8.8,25z M9.6,25.8l0.5,0.5l0.4-0.4c0.1-0.1,0.2-0.2,0.3-0.3c0-0.1,0.1-0.1,0.1-0.2s0-0.1-0.1-0.2
		c-0.1-0.1-0.1-0.1-0.2-0.1c-0.1,0-0.1,0-0.2,0c-0.1,0-0.2,0.1-0.4,0.3L9.6,25.8z"/>
	<path class="st1" d="M11.9,25l-1.9-1.9l0.4-0.4l1.6,1.6l1-1l0.3,0.3L11.9,25z"/>
	<path class="st1" d="M13.6,23.4l-1.9-1.9l1.4-1.4l0.3,0.3l-1,1l0.4,0.4l1-1l0.3,0.3l-1,1l0.5,0.5l1.1-1.1L15,22L13.6,23.4z"/>
	<path class="st1" d="M13.4,19.8l0.7-0.7c0.2-0.2,0.3-0.3,0.4-0.3c0.1-0.1,0.3-0.1,0.5-0.1c0.2,0,0.3,0,0.5,0.1
		c0.2,0.1,0.3,0.2,0.5,0.4c0.2,0.2,0.3,0.3,0.3,0.5c0.1,0.2,0.1,0.4,0.1,0.5c0,0.1,0,0.3-0.1,0.4c-0.1,0.1-0.2,0.2-0.3,0.4l-0.7,0.7
		L13.4,19.8z M14.1,19.7l1.3,1.3l0.3-0.3c0.1-0.1,0.2-0.2,0.2-0.3c0-0.1,0.1-0.2,0.1-0.2c0-0.1,0-0.2-0.1-0.3
		c-0.1-0.1-0.2-0.2-0.3-0.4c-0.1-0.1-0.3-0.2-0.4-0.3c-0.1-0.1-0.2-0.1-0.3-0.1c-0.1,0-0.2,0-0.3,0.1c-0.1,0-0.2,0.1-0.3,0.3
		L14.1,19.7z"/>
</g>
</svg>
