<?xml version="1.0" encoding="utf-8"?>
<!-- Generator: Adobe Illustrator 23.0.2, SVG Export Plug-In . SVG Version: 6.00 Build 0)  -->
<svg version="1.1" id="图层_1" xmlns="http://www.w3.org/2000/svg" xmlns:xlink="http://www.w3.org/1999/xlink" x="0px" y="0px"
	 viewBox="0 0 46 46" style="enable-background:new 0 0 46 46;" xml:space="preserve">
<style type="text/css">
	.st0{clip-path:url(#SVGID_2_);fill:url(#SVGID_3_);}
	.st1{fill:#FFFFFF;}
	.st2{fill:#647382;}
	.st3{fill:#283746;}
</style>
<g>
	<g>
		<defs>
			<polygon id="SVGID_1_" points="26,0 0,26 0,44 44,0 			"/>
		</defs>
		<clipPath id="SVGID_2_">
			<use xlink:href="#SVGID_1_"  style="overflow:visible;"/>
		</clipPath>
		
			<linearGradient id="SVGID_3_" gradientUnits="userSpaceOnUse" x1="-1110.3662" y1="456.8844" x2="-1109.3662" y2="456.8844" gradientTransform="matrix(7.7775 31.7765 -31.7765 7.7775 23171.6309 31734.0332)">
			<stop  offset="0" style="stop-color:#AAB9C8"/>
			<stop  offset="1" style="stop-color:#788796"/>
		</linearGradient>
		<polygon class="st0" points="41.5,-10.2 54.2,41.5 2.5,54.2 -10.2,2.5 		"/>
	</g>
</g>
<polygon class="st2" points="44,0 42,2 46,2 "/>
<polygon class="st3" points="0,44 2,46 2,42 "/>
<g>
	<path class="st1" d="M7.6,31.5L3,26.9l1.6-1.6C5,25,5.3,24.7,5.5,24.6c0.3-0.2,0.7-0.3,1-0.3c0.4,0,0.9,0,1.3,0.2
		c0.4,0.2,0.9,0.5,1.3,0.9c0.3,0.3,0.6,0.7,0.8,1c0.2,0.3,0.3,0.7,0.4,1c0,0.3,0,0.6,0,0.8c-0.1,0.3-0.2,0.5-0.3,0.8
		c-0.2,0.3-0.4,0.5-0.7,0.8L7.6,31.5z M7.7,30.3l1-1c0.3-0.3,0.5-0.6,0.6-0.8c0.1-0.2,0.2-0.4,0.2-0.6c0-0.3-0.1-0.6-0.2-0.9
		c-0.2-0.3-0.4-0.7-0.8-1c-0.5-0.5-0.9-0.8-1.3-0.9C6.7,25,6.3,25,6,25.2c-0.2,0.1-0.5,0.3-0.9,0.7l-1,1L7.7,30.3z"/>
	<path class="st1" d="M8.2,23l-0.6-0.6l0.6-0.6l0.6,0.6L8.2,23z M12.2,26.9l-3.3-3.3l0.6-0.6l3.3,3.3L12.2,26.9z"/>
	<path class="st1" d="M12.4,24.7l0.5-0.6c0.3,0.2,0.5,0.3,0.8,0.3c0.3,0,0.5-0.2,0.8-0.4c0.3-0.3,0.4-0.5,0.4-0.7
		c0-0.2,0-0.4-0.2-0.6c-0.1-0.1-0.3-0.2-0.5-0.1c-0.1,0-0.4,0.2-0.8,0.4c-0.5,0.3-0.9,0.5-1.1,0.6c-0.2,0.1-0.5,0.1-0.7,0
		c-0.2-0.1-0.4-0.2-0.6-0.3c-0.1-0.1-0.3-0.3-0.3-0.5c-0.1-0.2-0.1-0.4,0-0.6c0-0.2,0.1-0.3,0.2-0.5s0.2-0.4,0.4-0.6
		c0.3-0.3,0.5-0.5,0.8-0.6c0.3-0.1,0.5-0.2,0.7-0.1c0.2,0,0.5,0.1,0.7,0.3L13,21.3c-0.2-0.1-0.4-0.2-0.6-0.2c-0.2,0-0.4,0.1-0.7,0.4
		c-0.3,0.3-0.4,0.5-0.4,0.7c0,0.2,0,0.4,0.1,0.5c0.1,0.1,0.2,0.1,0.3,0.1c0.1,0,0.2,0,0.4-0.1c0.1,0,0.3-0.2,0.6-0.4
		c0.5-0.3,0.9-0.5,1.1-0.6c0.2-0.1,0.4-0.1,0.7-0.1c0.2,0,0.4,0.2,0.6,0.3c0.2,0.2,0.3,0.4,0.4,0.7c0.1,0.3,0,0.6-0.1,0.9
		c-0.1,0.3-0.3,0.6-0.6,0.8c-0.4,0.4-0.8,0.7-1.3,0.7C13.2,25.2,12.8,25,12.4,24.7z"/>
	<path class="st1" d="M18.5,19.7c0,0.4-0.1,0.7-0.2,1c-0.1,0.3-0.3,0.5-0.5,0.7C17.4,21.8,17,22,16.7,22c-0.4,0-0.7-0.1-1-0.4
		c-0.2-0.2-0.3-0.3-0.3-0.6c-0.1-0.2-0.1-0.4,0-0.6c0-0.2,0.1-0.4,0.2-0.6c0.1-0.1,0.2-0.3,0.4-0.6c0.4-0.5,0.7-0.9,0.8-1.2
		C16.7,18,16.7,18,16.6,18c-0.2-0.2-0.4-0.3-0.6-0.3c-0.3,0-0.5,0.2-0.8,0.4c-0.3,0.3-0.4,0.5-0.4,0.7c0,0.2,0,0.5,0.2,0.8L14.3,20
		c-0.2-0.3-0.3-0.6-0.3-0.8c0-0.3,0-0.5,0.2-0.8s0.4-0.6,0.6-0.9c0.3-0.3,0.5-0.5,0.8-0.6c0.2-0.1,0.5-0.2,0.6-0.1
		c0.2,0,0.4,0.1,0.6,0.2c0.1,0.1,0.3,0.2,0.5,0.5l0.7,0.7c0.5,0.5,0.9,0.8,1,1c0.2,0.1,0.3,0.2,0.5,0.3L19,20
		C18.9,20,18.7,19.9,18.5,19.7z M17.2,18.5c-0.1,0.3-0.4,0.7-0.7,1.1c-0.2,0.3-0.3,0.5-0.4,0.6c-0.1,0.1-0.1,0.3,0,0.4
		c0,0.1,0.1,0.2,0.2,0.3c0.1,0.1,0.3,0.2,0.5,0.2c0.2,0,0.4-0.1,0.6-0.3c0.2-0.2,0.4-0.5,0.4-0.7s0.1-0.5,0-0.8
		c-0.1-0.2-0.2-0.4-0.5-0.7L17.2,18.5z"/>
	<path class="st1" d="M20.8,18.2l-0.5,0.5l-4.6-4.6l0.6-0.6l1.6,1.6c-0.1-0.5,0.1-1,0.5-1.4c0.2-0.2,0.4-0.4,0.7-0.5
		s0.5-0.1,0.8-0.1c0.3,0,0.5,0.1,0.8,0.3c0.3,0.1,0.5,0.3,0.8,0.6c0.6,0.6,0.9,1.1,0.9,1.7c0,0.6-0.2,1.1-0.5,1.5
		c-0.4,0.4-0.9,0.5-1.4,0.4L20.8,18.2z M19.1,16.6c0.4,0.4,0.7,0.6,1,0.7c0.5,0.1,0.8,0,1.2-0.3c0.2-0.2,0.4-0.6,0.3-1
		c0-0.4-0.3-0.8-0.7-1.2c-0.4-0.4-0.8-0.7-1.2-0.7c-0.4,0-0.7,0.1-0.9,0.3c-0.2,0.2-0.4,0.6-0.3,1C18.5,15.8,18.7,16.2,19.1,16.6z"
		/>
	<path class="st1" d="M23.9,15.2l-4.6-4.6l0.6-0.6l4.6,4.6L23.9,15.2z"/>
	<path class="st1" d="M26.5,10.5l0.7-0.5c0.2,0.4,0.3,0.9,0.3,1.3c-0.1,0.4-0.3,0.8-0.7,1.2c-0.5,0.5-1,0.7-1.6,0.7
		s-1.1-0.3-1.7-0.8c-0.6-0.6-0.8-1.1-0.9-1.7c0-0.6,0.2-1.1,0.7-1.6c0.4-0.4,1-0.7,1.5-0.6c0.6,0,1.1,0.3,1.7,0.9
		c0,0,0.1,0.1,0.1,0.2l-2.5,2.5c0.4,0.3,0.8,0.5,1.1,0.5c0.4,0,0.7-0.1,1-0.4c0.2-0.2,0.3-0.4,0.4-0.7
		C26.7,11.1,26.6,10.8,26.5,10.5z M23.7,11.4l1.8-1.8c-0.3-0.3-0.6-0.4-0.8-0.4c-0.4,0-0.7,0.1-1,0.4c-0.3,0.3-0.4,0.6-0.4,0.9
		C23.3,10.8,23.5,11.1,23.7,11.4z"/>
	<path class="st1" d="M31,8.1l-0.4-0.4c0.1,0.5,0,1-0.4,1.4c-0.3,0.3-0.6,0.4-0.9,0.5c-0.4,0.1-0.7,0-1.1-0.1S27.3,9.1,27,8.8
		c-0.3-0.3-0.6-0.7-0.7-1.1c-0.2-0.4-0.2-0.8-0.1-1.1c0.1-0.4,0.3-0.7,0.5-1c0.2-0.2,0.4-0.3,0.7-0.4s0.5-0.1,0.7-0.1l-1.6-1.6
		L26.9,3l4.6,4.6L31,8.1z M27.6,8.2c0.4,0.4,0.8,0.7,1.2,0.7c0.4,0,0.7-0.1,0.9-0.3C30,8.3,30.1,8,30.1,7.7c0-0.4-0.2-0.8-0.7-1.2
		c-0.5-0.5-0.9-0.7-1.3-0.7c-0.4,0-0.7,0.1-1,0.3c-0.3,0.2-0.4,0.6-0.3,0.9C26.9,7.4,27.1,7.8,27.6,8.2z"/>
</g>
</svg>
