<?xml version="1.0" encoding="utf-8"?>
<!-- Generator: Adobe Illustrator 23.0.2, SVG Export Plug-In . SVG Version: 6.00 Build 0)  -->
<svg version="1.1" id="图层_1" xmlns="http://www.w3.org/2000/svg" xmlns:xlink="http://www.w3.org/1999/xlink" x="0px" y="0px"
	 viewBox="0 0 50 20" style="enable-background:new 0 0 50 20;" xml:space="preserve">
<style type="text/css">
	.st0{clip-path:url(#SVGID_2_);fill:#4582EE;}
	.st1{fill:#FFFFFF;}
</style>
<g>
	<g>
		<defs>
			<rect id="SVGID_1_" width="50" height="20"/>
		</defs>
		<clipPath id="SVGID_2_">
			<use xlink:href="#SVGID_1_"  style="overflow:visible;"/>
		</clipPath>
		<path class="st0" d="M3,20h44c1.7,0,3-1.3,3-3V3c0-1.7-1.3-3-3-3H3C1.3,0,0,1.3,0,3v14C0,18.7,1.3,20,3,20"/>
	</g>
</g>
<g>
	<path class="st1" d="M12.2,13.7V5.1h1.7l2,6.1c0.2,0.6,0.3,1,0.4,1.3c0.1-0.3,0.3-0.8,0.5-1.4l2.1-6h1.5v8.6h-1.1V6.5l-2.5,7.2h-1
		l-2.5-7.3v7.3H12.2z"/>
	<path class="st1" d="M21.7,10.6c0-1.2,0.3-2,1-2.6c0.5-0.5,1.2-0.7,2-0.7c0.9,0,1.6,0.3,2.1,0.8s0.8,1.3,0.8,2.3
		c0,0.8-0.1,1.4-0.4,1.9s-0.6,0.8-1,1.1s-1,0.4-1.5,0.4c-0.9,0-1.6-0.3-2.1-0.8S21.7,11.7,21.7,10.6z M22.8,10.6
		c0,0.8,0.2,1.4,0.5,1.8s0.8,0.6,1.3,0.6c0.5,0,1-0.2,1.3-0.6s0.5-1,0.5-1.8c0-0.8-0.2-1.4-0.5-1.7s-0.8-0.6-1.3-0.6
		c-0.5,0-1,0.2-1.3,0.6S22.8,9.8,22.8,10.6z"/>
	<path class="st1" d="M28.8,13.7V7.5h0.9v0.9C30,8,30.2,7.7,30.4,7.6s0.4-0.2,0.7-0.2c0.4,0,0.7,0.1,1.1,0.3l-0.4,1
		c-0.3-0.2-0.5-0.2-0.8-0.2c-0.2,0-0.4,0.1-0.6,0.2S30.1,9,30,9.2c-0.1,0.4-0.2,0.8-0.2,1.2v3.3H28.8z"/>
	<path class="st1" d="M37,11.7l1.1,0.1c-0.2,0.6-0.5,1.1-1,1.5s-1.1,0.5-1.8,0.5c-0.9,0-1.6-0.3-2.2-0.8s-0.8-1.3-0.8-2.4
		c0-1,0.3-1.9,0.8-2.4s1.2-0.9,2.1-0.9c0.8,0,1.5,0.3,2,0.8s0.8,1.4,0.8,2.4c0,0.1,0,0.2,0,0.3h-4.6c0,0.7,0.2,1.2,0.6,1.6
		s0.8,0.5,1.3,0.5c0.4,0,0.7-0.1,1-0.3S36.9,12.2,37,11.7z M33.6,10h3.5c0-0.5-0.2-0.9-0.4-1.2c-0.3-0.4-0.8-0.6-1.3-0.6
		c-0.5,0-0.9,0.2-1.2,0.5S33.6,9.5,33.6,10z"/>
</g>
</svg>
